<svg width="160" height="32" viewBox="0 0 160 32" fill="none" xmlns="http://www.w3.org/2000/svg">
<path d="M7.14584 10.5004H9.39027L12.396 17.8368H12.5147L15.5204 10.5004H17.7649V20.625H16.0049V13.6692H15.911L13.1129 20.5953H11.7978L8.99972 13.6544H8.90579V20.625H7.14584V10.5004ZM23.0447 20.7733C22.2834 20.7733 21.6259 20.6151 21.0722 20.2987C20.5218 19.979 20.0983 19.5275 19.8016 18.9442C19.505 18.3575 19.3567 17.667 19.3567 16.8728C19.3567 16.0916 19.505 15.4061 19.8016 14.8162C20.1016 14.2229 20.5201 13.7615 21.0573 13.432C21.5946 13.0991 22.2257 12.9326 22.9508 12.9326C23.4188 12.9326 23.8604 13.0084 24.2757 13.16C24.6942 13.3084 25.0634 13.5391 25.3831 13.8522C25.706 14.1653 25.9598 14.5641 26.1444 15.0485C26.3289 15.5297 26.4212 16.1032 26.4212 16.7689V17.3177H20.1971V16.1114H24.7058C24.7025 15.7687 24.6283 15.4638 24.4833 15.1968C24.3383 14.9266 24.1356 14.714 23.8752 14.5591C23.6182 14.4042 23.3182 14.3268 22.9755 14.3268C22.6097 14.3268 22.2883 14.4157 22.0115 14.5937C21.7346 14.7684 21.5188 14.9991 21.3638 15.2858C21.2122 15.5693 21.1348 15.8807 21.1315 16.2202V17.2732C21.1315 17.7148 21.2122 18.0938 21.3737 18.4102C21.5352 18.7233 21.761 18.9639 22.051 19.132C22.341 19.2968 22.6805 19.3792 23.0694 19.3792C23.3298 19.3792 23.5654 19.3429 23.7764 19.2704C23.9873 19.1946 24.1702 19.0842 24.3251 18.9392C24.48 18.7942 24.597 18.6146 24.6761 18.4003L26.3471 18.5882C26.2416 19.0298 26.0406 19.4154 25.7439 19.745C25.4506 20.0713 25.0749 20.3251 24.6168 20.5064C24.1587 20.6843 23.6346 20.7733 23.0447 20.7733ZM31.2969 20.7733C30.5356 20.7733 29.8781 20.6151 29.3244 20.2987C28.774 19.979 28.3505 19.5275 28.0539 18.9442C27.7573 18.3575 27.6089 17.667 27.6089 16.8728C27.6089 16.0916 27.7573 15.4061 28.0539 14.8162C28.3538 14.2229 28.7724 13.7615 29.3096 13.432C29.8468 13.0991 30.4779 12.9326 31.203 12.9326C31.671 12.9326 32.1126 13.0084 32.5279 13.16C32.9465 13.3084 33.3156 13.5391 33.6353 13.8522C33.9583 14.1653 34.212 14.5641 34.3966 15.0485C34.5812 15.5297 34.6735 16.1032 34.6735 16.7689V17.3177H28.4494V16.1114H32.958C32.9547 15.7687 32.8806 15.4638 32.7355 15.1968C32.5905 14.9266 32.3878 14.714 32.1275 14.5591C31.8704 14.4042 31.5705 14.3268 31.2277 14.3268C30.8619 14.3268 30.5405 14.4157 30.2637 14.5937C29.9869 14.7684 29.771 14.9991 29.6161 15.2858C29.4645 15.5693 29.387 15.8807 29.3837 16.2202V17.2732C29.3837 17.7148 29.4645 18.0938 29.626 18.4102C29.7875 18.7233 30.0132 18.9639 30.3032 19.132C30.5933 19.2968 30.9327 19.3792 31.3216 19.3792C31.582 19.3792 31.8177 19.3429 32.0286 19.2704C32.2395 19.1946 32.4224 19.0842 32.5773 18.9392C32.7322 18.7942 32.8492 18.6146 32.9283 18.4003L34.5993 18.5882C34.4938 19.0298 34.2928 19.4154 33.9962 19.745C33.7029 20.0713 33.3271 20.3251 32.869 20.5064C32.4109 20.6843 31.8869 20.7733 31.2969 20.7733ZM39.9793 13.0315V14.4157H35.614V13.0315H39.9793ZM36.6917 11.2122H38.4813V18.341C38.4813 18.5816 38.5176 18.7662 38.5901 18.8947C38.6659 19.02 38.7648 19.1056 38.8867 19.1518C39.0087 19.1979 39.1438 19.221 39.2921 19.221C39.4041 19.221 39.5063 19.2128 39.5986 19.1963C39.6942 19.1798 39.7667 19.165 39.8161 19.1518L40.1177 20.5508C40.0221 20.5838 39.8853 20.6201 39.7074 20.6596C39.5327 20.6992 39.3185 20.7222 39.0647 20.7288C38.6165 20.742 38.2127 20.6744 37.8535 20.5261C37.4942 20.3745 37.2092 20.1405 36.9982 19.8241C36.7906 19.5077 36.6884 19.1122 36.6917 18.6376V11.2122ZM47.1142 20.7783C46.633 20.7783 46.1996 20.6926 45.814 20.5212C45.4317 20.3465 45.1285 20.0894 44.9044 19.75C44.6836 19.4105 44.5732 18.9919 44.5732 18.4943C44.5732 18.0658 44.6523 17.7115 44.8105 17.4314C44.9687 17.1512 45.1845 16.9271 45.4581 16.759C45.7316 16.591 46.0398 16.4641 46.3826 16.3784C46.7286 16.2894 47.0862 16.2251 47.4553 16.1856C47.9003 16.1394 48.2612 16.0982 48.538 16.062C48.8148 16.0224 49.0159 15.9631 49.1411 15.884C49.2697 15.8016 49.3339 15.6747 49.3339 15.5034V15.4737C49.3339 15.1013 49.2235 14.8129 49.0027 14.6085C48.7819 14.4042 48.4638 14.302 48.0486 14.302C47.6102 14.302 47.2625 14.3976 47.0055 14.5888C46.7517 14.7799 46.5803 15.0057 46.4913 15.2661L44.8204 15.0288C44.9522 14.5673 45.1697 14.1817 45.4729 13.8719C45.7761 13.5588 46.1469 13.3248 46.5852 13.1699C47.0236 13.0117 47.5081 12.9326 48.0387 12.9326C48.4045 12.9326 48.7687 12.9755 49.1312 13.0612C49.4938 13.1469 49.825 13.2886 50.1249 13.4863C50.4248 13.6808 50.6654 13.9461 50.8467 14.2823C51.0313 14.6184 51.1235 15.0386 51.1235 15.5429V20.625H49.4031V19.5819H49.3438C49.2351 19.7928 49.0818 19.9906 48.8841 20.1751C48.6896 20.3564 48.4441 20.5031 48.1474 20.6151C47.8541 20.7239 47.5097 20.7783 47.1142 20.7783ZM47.5789 19.4632C47.9382 19.4632 48.2496 19.3924 48.5133 19.2507C48.7769 19.1056 48.9796 18.9145 49.1214 18.6772C49.2664 18.4399 49.3389 18.1812 49.3389 17.901V17.0062C49.2828 17.0524 49.1873 17.0952 49.0521 17.1348C48.9203 17.1743 48.772 17.2089 48.6072 17.2386C48.4424 17.2682 48.2793 17.2946 48.1178 17.3177C47.9563 17.3408 47.8162 17.3605 47.6976 17.377C47.4306 17.4133 47.1917 17.4726 46.9807 17.555C46.7698 17.6374 46.6034 17.7527 46.4814 17.901C46.3595 18.046 46.2985 18.2339 46.2985 18.4646C46.2985 18.7942 46.4188 19.043 46.6594 19.2111C46.9 19.3792 47.2065 19.4632 47.5789 19.4632ZM54.7126 10.5004V20.625H52.923V10.5004H54.7126ZM58.3425 10.5004V20.625H56.5529V10.5004H58.3425ZM66.9482 20.7733C66.1902 20.7733 65.5393 20.6069 64.9955 20.274C64.455 19.9411 64.0381 19.4814 63.7447 18.8947C63.4547 18.3048 63.3097 17.6258 63.3097 16.8579C63.3097 16.0867 63.458 15.4061 63.7546 14.8162C64.0512 14.2229 64.4698 13.7615 65.0103 13.432C65.5541 13.0991 66.1968 12.9326 66.9384 12.9326C67.5547 12.9326 68.1001 13.0463 68.5747 13.2738C69.0526 13.4979 69.4333 13.8159 69.7167 14.2279C70.0001 14.6366 70.1616 15.1144 70.2012 15.6615H68.4907C68.4215 15.2957 68.2567 14.9909 67.9963 14.747C67.7392 14.4998 67.3948 14.3762 66.9631 14.3762C66.5972 14.3762 66.2759 14.4751 65.9991 14.6728C65.7222 14.8673 65.5063 15.1474 65.3514 15.5132C65.1998 15.8791 65.124 16.3174 65.124 16.8283C65.124 17.3457 65.1998 17.7906 65.3514 18.163C65.503 18.5322 65.7156 18.8173 65.9892 19.0183C66.266 19.2161 66.5907 19.3149 66.9631 19.3149C67.2267 19.3149 67.4624 19.2655 67.67 19.1666C67.881 19.0644 68.0573 18.9178 68.199 18.7266C68.3407 18.5355 68.4379 18.3031 68.4907 18.0296H70.2012C70.1583 18.5668 70.0001 19.043 69.7266 19.4583C69.453 19.8703 69.0806 20.1933 68.6093 20.4273C68.138 20.658 67.5843 20.7733 66.9482 20.7733ZM76.5105 17.4314V13.0315H78.3002V20.625H76.5649V19.2754H76.4858C76.3144 19.7005 76.0327 20.0482 75.6405 20.3185C75.2516 20.5887 74.772 20.7239 74.2019 20.7239C73.7042 20.7239 73.2642 20.6135 72.8819 20.3926C72.5029 20.1685 72.2063 19.8439 71.992 19.4187C71.7778 18.9903 71.6707 18.4729 71.6707 17.8664V13.0315H73.4603V17.5896C73.4603 18.0708 73.5921 18.4531 73.8558 18.7365C74.1195 19.02 74.4655 19.1617 74.894 19.1617C75.1576 19.1617 75.4131 19.0974 75.6602 18.9689C75.9074 18.8403 76.1101 18.6492 76.2683 18.3954C76.4298 18.1383 76.5105 17.817 76.5105 17.4314ZM86.1421 15.0386L84.5106 15.2166C84.4645 15.0518 84.3838 14.8969 84.2684 14.7519C84.1564 14.6069 84.0047 14.4899 83.8136 14.4009C83.6224 14.3119 83.3884 14.2674 83.1116 14.2674C82.7392 14.2674 82.4261 14.3482 82.1723 14.5097C81.9218 14.6712 81.7982 14.8804 81.8015 15.1375C81.7982 15.3583 81.879 15.538 82.0438 15.6764C82.2118 15.8148 82.4887 15.9285 82.8743 16.0175L84.1695 16.2943C84.888 16.4492 85.4219 16.6948 85.7713 17.0309C86.1239 17.3671 86.3019 17.8071 86.3052 18.3509C86.3019 18.8288 86.1618 19.2507 85.885 19.6165C85.6114 19.979 85.2308 20.2625 84.743 20.4668C84.2552 20.6711 83.6949 20.7733 83.0622 20.7733C82.1327 20.7733 81.3846 20.5789 80.8177 20.19C80.2508 19.7978 79.913 19.2523 79.8043 18.5536L81.5494 18.3855C81.6285 18.7283 81.7966 18.987 82.0536 19.1617C82.3107 19.3363 82.6452 19.4237 83.0572 19.4237C83.4824 19.4237 83.8235 19.3363 84.0805 19.1617C84.3409 18.987 84.4711 18.7711 84.4711 18.5141C84.4711 18.2965 84.3871 18.1169 84.219 17.9752C84.0542 17.8335 83.7971 17.7247 83.4478 17.6489L82.1525 17.377C81.4241 17.2254 80.8853 16.97 80.5359 16.6107C80.1866 16.2482 80.0136 15.7901 80.0168 15.2364C80.0136 14.7684 80.1404 14.363 80.3975 14.0202C80.6579 13.6742 81.0188 13.4072 81.4802 13.2194C81.9449 13.0282 82.4804 12.9326 83.0869 12.9326C83.9767 12.9326 84.6771 13.1221 85.1879 13.5012C85.7021 13.8802 86.0201 14.3927 86.1421 15.0386ZM91.5727 13.0315V14.4157H87.2074V13.0315H91.5727ZM88.2851 11.2122H90.0748V18.341C90.0748 18.5816 90.111 18.7662 90.1835 18.8947C90.2593 19.02 90.3582 19.1056 90.4801 19.1518C90.6021 19.1979 90.7372 19.221 90.8855 19.221C90.9976 19.221 91.0997 19.2128 91.192 19.1963C91.2876 19.1798 91.3601 19.165 91.4095 19.1518L91.7111 20.5508C91.6155 20.5838 91.4788 20.6201 91.3008 20.6596C91.1261 20.6992 90.9119 20.7222 90.6581 20.7288C90.2099 20.742 89.8061 20.6744 89.4469 20.5261C89.0877 20.3745 88.8026 20.1405 88.5917 19.8241C88.384 19.5077 88.2818 19.1122 88.2851 18.6376V11.2122ZM96.3001 20.7733C95.5585 20.7733 94.9158 20.6102 94.372 20.2839C93.8282 19.9576 93.4064 19.5011 93.1065 18.9145C92.8098 18.3278 92.6615 17.6423 92.6615 16.8579C92.6615 16.0735 92.8098 15.3864 93.1065 14.7964C93.4064 14.2065 93.8282 13.7483 94.372 13.4221C94.9158 13.0958 95.5585 12.9326 96.3001 12.9326C97.0416 12.9326 97.6843 13.0958 98.2281 13.4221C98.7719 13.7483 99.1921 14.2065 99.4887 14.7964C99.7887 15.3864 99.9386 16.0735 99.9386 16.8579C99.9386 17.6423 99.7887 18.3278 99.4887 18.9145C99.1921 19.5011 98.7719 19.9576 98.2281 20.2839C97.6843 20.6102 97.0416 20.7733 96.3001 20.7733ZM96.31 19.3396C96.712 19.3396 97.0482 19.2292 97.3185 19.0084C97.5887 18.7843 97.7898 18.4844 97.9216 18.1087C98.0567 17.7329 98.1243 17.3144 98.1243 16.853C98.1243 16.3883 98.0567 15.9681 97.9216 15.5923C97.7898 15.2133 97.5887 14.9118 97.3185 14.6876C97.0482 14.4635 96.712 14.3515 96.31 14.3515C95.898 14.3515 95.5552 14.4635 95.2817 14.6876C95.0114 14.9118 94.8087 15.2133 94.6736 15.5923C94.5418 15.9681 94.4759 16.3883 94.4759 16.853C94.4759 17.3144 94.5418 17.7329 94.6736 18.1087C94.8087 18.4844 95.0114 18.7843 95.2817 19.0084C95.5552 19.2292 95.898 19.3396 96.31 19.3396ZM101.458 20.625V13.0315H103.168V14.3218H103.257C103.415 13.8868 103.677 13.5473 104.043 13.3034C104.409 13.0562 104.846 12.9326 105.353 12.9326C105.867 12.9326 106.301 13.0579 106.653 13.3084C107.009 13.5555 107.26 13.8934 107.405 14.3218H107.484C107.652 13.9 107.935 13.5638 108.334 13.3133C108.736 13.0595 109.213 12.9326 109.763 12.9326C110.462 12.9326 111.032 13.1535 111.473 13.5951C111.915 14.0367 112.136 14.6811 112.136 15.5281V20.625H110.341V15.8049C110.341 15.3336 110.216 14.9892 109.966 14.7717C109.715 14.5509 109.409 14.4405 109.046 14.4405C108.614 14.4405 108.277 14.5756 108.033 14.8458C107.792 15.1128 107.672 15.4605 107.672 15.889V20.625H105.917V15.7308C105.917 15.3386 105.798 15.0255 105.561 14.7915C105.327 14.5575 105.02 14.4405 104.641 14.4405C104.384 14.4405 104.15 14.5064 103.939 14.6382C103.728 14.7667 103.56 14.9497 103.435 15.187C103.31 15.421 103.247 15.6945 103.247 16.0076V20.625H101.458ZM117.313 20.7733C116.552 20.7733 115.894 20.6151 115.341 20.2987C114.79 19.979 114.367 19.5275 114.07 18.9442C113.773 18.3575 113.625 17.667 113.625 16.8728C113.625 16.0916 113.773 15.4061 114.07 14.8162C114.37 14.2229 114.789 13.7615 115.326 13.432C115.863 13.0991 116.494 12.9326 117.219 12.9326C117.687 12.9326 118.129 13.0084 118.544 13.16C118.963 13.3084 119.332 13.5391 119.652 13.8522C119.975 14.1653 120.228 14.5641 120.413 15.0485C120.597 15.5297 120.69 16.1032 120.69 16.7689V17.3177H114.466V16.1114H118.974C118.971 15.7687 118.897 15.4638 118.752 15.1968C118.607 14.9266 118.404 14.714 118.144 14.5591C117.887 14.4042 117.587 14.3268 117.244 14.3268C116.878 14.3268 116.557 14.4157 116.28 14.5937C116.003 14.7684 115.787 14.9991 115.632 15.2858C115.481 15.5693 115.403 15.8807 115.4 16.2202V17.2732C115.4 17.7148 115.481 18.0938 115.642 18.4102C115.804 18.7233 116.029 18.9639 116.319 19.132C116.61 19.2968 116.949 19.3792 117.338 19.3792C117.598 19.3792 117.834 19.3429 118.045 19.2704C118.256 19.1946 118.439 19.0842 118.594 18.9392C118.748 18.7942 118.865 18.6146 118.945 18.4003L120.616 18.5882C120.51 19.0298 120.309 19.4154 120.012 19.745C119.719 20.0713 119.343 20.3251 118.885 20.5064C118.427 20.6843 117.903 20.7733 117.313 20.7733ZM122.204 20.625V13.0315H123.939V14.2971H124.018C124.156 13.8588 124.394 13.5209 124.73 13.2836C125.069 13.043 125.457 12.9228 125.892 12.9228C125.991 12.9228 126.101 12.9277 126.223 12.9376C126.348 12.9442 126.452 12.9557 126.534 12.9722V14.6184C126.459 14.5921 126.338 14.569 126.173 14.5492C126.012 14.5262 125.855 14.5146 125.704 14.5146C125.378 14.5146 125.084 14.5855 124.824 14.7272C124.567 14.8656 124.364 15.0584 124.216 15.3056C124.067 15.5528 123.993 15.8379 123.993 16.1609V20.625H122.204ZM133.725 15.0386L132.094 15.2166C132.047 15.0518 131.967 14.8969 131.851 14.7519C131.739 14.6069 131.588 14.4899 131.396 14.4009C131.205 14.3119 130.971 14.2674 130.694 14.2674C130.322 14.2674 130.009 14.3482 129.755 14.5097C129.505 14.6712 129.381 14.8804 129.384 15.1375C129.381 15.3583 129.462 15.538 129.627 15.6764C129.795 15.8148 130.072 15.9285 130.457 16.0175L131.752 16.2943C132.471 16.4492 133.005 16.6948 133.354 17.0309C133.707 17.3671 133.885 17.8071 133.888 18.3509C133.885 18.8288 133.745 19.2507 133.468 19.6165C133.194 19.979 132.814 20.2625 132.326 20.4668C131.838 20.6711 131.278 20.7733 130.645 20.7733C129.716 20.7733 128.967 20.5789 128.401 20.19C127.834 19.7978 127.496 19.2523 127.387 18.5536L129.132 18.3855C129.211 18.7283 129.379 18.987 129.637 19.1617C129.894 19.3363 130.228 19.4237 130.64 19.4237C131.065 19.4237 131.406 19.3363 131.663 19.1617C131.924 18.987 132.054 18.7711 132.054 18.5141C132.054 18.2965 131.97 18.1169 131.802 17.9752C131.637 17.8335 131.38 17.7247 131.031 17.6489L129.735 17.377C129.007 17.2254 128.468 16.97 128.119 16.6107C127.769 16.2482 127.596 15.7901 127.6 15.2364C127.596 14.7684 127.723 14.363 127.98 14.0202C128.241 13.6742 128.602 13.4072 129.063 13.2194C129.528 13.0282 130.063 12.9326 130.67 12.9326C131.56 12.9326 132.26 13.1221 132.771 13.5012C133.285 13.8802 133.603 14.3927 133.725 15.0386Z" fill="#4CAF4F"/>
<path d="M153.714 18.4094L156.006 16.1173C156.278 15.8455 156.278 15.4047 156.006 15.1329L153.714 12.8408M155.802 15.6251L146.057 15.6251" stroke="#4CAF4F" stroke-width="1.0441" stroke-linecap="round"/>
</svg>
