<svg width="34" height="35" viewBox="0 0 34 35" fill="none" xmlns="http://www.w3.org/2000/svg">
<rect x="-0.00732422" y="0.919434" width="33.4113" height="33.4113" rx="5.56856" fill="#F5F7FA"/>
<g clip-path="url(#clip0_211_2521)">
<path d="M30.6172 10.2548C30.6172 10.2783 30.6172 10.3077 30.6111 10.3254C30.5804 10.5549 30.5804 10.7843 30.5988 11.0197C30.6111 11.0785 30.6233 11.1374 30.6724 11.1845C30.7521 11.2727 30.8747 11.2551 30.9237 11.1492C30.9483 11.0962 30.9483 11.0432 30.936 10.9903C30.8747 10.7667 30.8624 10.5313 30.8563 10.3018C30.8563 10.2901 30.8563 10.2724 30.8563 10.2548C30.9237 10.2489 30.985 10.243 31.0402 10.243C31.0831 10.2371 31.1199 10.2312 31.1506 10.2136C31.2425 10.1665 31.2425 10.0665 31.1444 10.0194C31.1076 10.0017 31.0586 9.99585 31.0157 9.99585C30.8624 10.0017 30.7092 10.0017 30.5559 10.0017C30.5007 10.0017 30.4455 10.0076 30.3903 10.0135C30.3597 10.0194 30.3229 10.0194 30.2984 10.037C30.2554 10.0547 30.231 10.0841 30.231 10.1253C30.2371 10.1665 30.2554 10.19 30.2984 10.2077C30.3229 10.2253 30.3535 10.2312 30.3842 10.2312C30.4578 10.2371 30.5375 10.2489 30.6172 10.2548ZM32.3031 10.5254C32.3031 10.5313 32.3093 10.5372 32.3093 10.5372C32.3338 10.6961 32.3583 10.8491 32.3767 11.002C32.3829 11.055 32.389 11.1021 32.4258 11.1433C32.5055 11.2433 32.6281 11.2315 32.6832 11.1256C32.7078 11.0727 32.7139 11.0197 32.7017 10.9609C32.6649 10.7843 32.6465 10.6078 32.6097 10.4372C32.5851 10.3312 32.5545 10.2312 32.5239 10.1371C32.5055 10.0782 32.4626 10.037 32.389 10.0312C32.3154 10.0194 32.2602 10.0547 32.2296 10.1077C32.1928 10.1547 32.1621 10.2018 32.1376 10.2548C32.0947 10.3489 32.0579 10.4431 32.0089 10.5313C32.0027 10.5549 31.9966 10.5725 31.9844 10.5902C31.9782 10.5784 31.9721 10.5725 31.9721 10.5725C31.8924 10.4254 31.8188 10.2783 31.7391 10.1371C31.7268 10.1253 31.7207 10.1135 31.7146 10.1018C31.6778 10.0488 31.6349 10.0194 31.5675 10.0194C31.5061 10.0253 31.4571 10.0606 31.4265 10.1135C31.4142 10.1371 31.4142 10.1547 31.4081 10.1783C31.3835 10.3666 31.3529 10.5549 31.3284 10.7431C31.3161 10.8491 31.31 10.955 31.31 11.0609C31.3038 11.0844 31.31 11.1138 31.3222 11.1374C31.3345 11.1845 31.3713 11.2139 31.4203 11.2198C31.4816 11.2257 31.5245 11.208 31.5429 11.1609C31.5613 11.1256 31.5675 11.0962 31.5736 11.0668C31.5981 10.9609 31.6165 10.8608 31.6349 10.7608C31.6472 10.702 31.6533 10.6549 31.6717 10.5902C31.6839 10.6137 31.6962 10.6313 31.7085 10.649C31.7636 10.7196 31.8188 10.7902 31.8863 10.8491C31.9537 10.8961 32.0089 10.8903 32.064 10.8373C32.0763 10.8255 32.0825 10.8196 32.0947 10.8079C32.1499 10.7255 32.2173 10.6431 32.2725 10.5607C32.2848 10.549 32.2909 10.5372 32.3031 10.5254Z" fill="#3A3B7B"/>
<path d="M18.177 10.3703C18.1344 10.4821 18.1262 10.5627 18.1459 10.6297C18.1676 10.7207 18.224 10.7505 18.3006 10.7274C19.0207 10.5565 20.5998 11.0416 21.1844 11.1768C21.3223 11.2052 21.4344 11.0343 21.3404 10.8812C21.2031 10.7329 19.6247 10.0978 19.0224 10.0632C18.7864 10.0504 18.3643 9.99231 18.177 10.3703Z" fill="#3A3B7B"/>
<path d="M24.3483 8.31467C24.425 8.35718 24.4679 8.39774 24.4891 8.44305C24.5207 8.50249 24.504 8.54361 24.451 8.5646C23.975 8.78757 23.3416 9.74751 23.0859 10.0786C23.0239 10.1547 22.881 10.1105 22.8594 9.98524C22.8638 9.84363 23.4253 8.80188 23.7387 8.51814C23.8618 8.40736 24.0653 8.19 24.3483 8.31467Z" fill="#3A3B7B"/>
<path d="M20.5577 7.84216C20.6499 7.77546 20.7458 7.75209 20.7947 7.79544C21.5129 8.38494 21.8937 9.31846 22.1296 10.1731C22.1384 10.193 22.139 10.2216 22.1319 10.2514C22.129 10.2768 22.1096 10.3038 22.0788 10.3246C22.0459 10.3476 22.0175 10.3546 22.0042 10.3348C21.6894 9.92385 19.8917 8.32508 20.5577 7.84216Z" fill="#3A3B7B"/>
<path d="M5.3491 18.0625C5.52123 17.9395 5.70836 17.8371 5.90638 17.7577C6.11356 17.7008 6.33439 17.7102 6.5355 17.7846C6.73655 17.8589 6.907 17.994 7.02094 18.1695C7.12287 18.3446 7.16274 18.5467 7.13461 18.7455C7.10647 18.9442 7.01183 19.1287 6.86489 19.2714C6.751 19.387 6.62168 19.4877 6.48039 19.5709C5.85067 19.9614 5.21534 20.3304 4.58004 20.7209C4.45005 20.8186 4.31214 20.9062 4.16765 20.9829C3.94786 21.0881 3.69668 21.1163 3.45754 21.0626C3.2184 21.0089 3.00634 20.8767 2.85803 20.6888C2.74716 20.5557 2.65359 20.4103 2.57938 20.2555C1.97752 19.0414 1.35336 17.8326 0.773781 16.597C0.506282 16.0621 0.288942 15.447 0.0771737 14.8533C-0.0144471 14.6808 -0.0323386 14.4808 0.0273089 14.2959C0.0869565 14.1109 0.219437 13.9556 0.39657 13.8629C0.573704 13.7702 0.781511 13.7475 0.975802 13.7997C1.17009 13.8518 1.33554 13.9746 1.43695 14.142C1.74865 14.5395 2.02458 14.9618 2.26173 15.4043C2.8636 16.474 3.43761 17.5437 4.01718 18.5814C4.05093 18.6387 4.08814 18.694 4.12864 18.7472C4.56487 18.5711 4.97516 18.341 5.3491 18.0625Z" fill="#3A3B7B"/>
<path d="M11.5721 17.6893C10.1956 19.2351 7.88846 18.8446 6.72932 16.8549C5.90452 15.4429 5.75964 13.1108 7.55411 11.6399C7.9373 11.332 8.3955 11.1222 8.886 11.0302C9.4874 10.9474 10.1007 11.0493 10.6381 11.3211C11.1756 11.593 11.6098 12.021 11.8787 12.5439C12.8595 14.2555 12.7201 16.4377 11.5721 17.6893ZM11.0148 14.0843C10.8686 13.6637 10.5752 13.3046 10.1845 13.068C9.96336 12.9168 9.69467 12.8432 9.4237 12.8598C9.15268 12.8763 8.89591 12.982 8.69653 13.159C7.89963 13.8383 7.73241 15.4482 8.31199 16.4056C8.38588 16.5618 8.49435 16.7005 8.62993 16.8122C8.76551 16.9238 8.92488 17.0057 9.09687 17.0521C9.26886 17.0984 9.44931 17.1082 9.62564 17.0806C9.80198 17.053 9.96986 16.9887 10.1176 16.8924C10.5496 16.5709 10.8665 16.1283 11.0243 15.626C11.1821 15.1237 11.173 14.5867 10.9981 14.0897L11.0148 14.0843Z" fill="#3A3B7B"/>
<path d="M17.1895 14.7583C17.0485 14.7874 16.903 14.7891 16.7613 14.7634C16.6197 14.7376 16.4848 14.685 16.3647 14.6085C16.2596 14.5508 16.1691 14.4715 16.0998 14.3762C16.0304 14.2809 15.984 14.1721 15.9638 14.0575C15.9435 13.943 15.95 13.8255 15.9826 13.7136C16.0153 13.6017 16.0735 13.4982 16.1529 13.4104C16.2913 13.2341 16.4877 13.1078 16.7102 13.0521C17.2913 12.8902 17.8895 12.7915 18.4935 12.7579C18.6263 12.7431 18.7607 12.7539 18.889 12.7896C19.0173 12.8254 19.1369 12.8853 19.2407 12.9661C19.3445 13.0468 19.4305 13.1466 19.4936 13.2597C19.5567 13.3727 19.5956 13.4967 19.6081 13.6244C19.7822 14.2515 19.8013 14.9091 19.6638 15.5446C19.1623 17.5985 17.4347 18.3045 15.4953 17.6466C14.9509 17.4707 14.4736 17.1429 14.1244 16.7052C13.6586 16.1781 13.3284 15.5534 13.1603 14.8813C13.0241 14.2829 13.039 13.6619 13.2038 13.0701C13.3686 12.4783 13.6785 11.933 14.1077 11.4795C14.5149 10.9867 15.0435 10.5989 15.6458 10.351C16.0264 10.1496 16.4717 10.0924 16.8941 10.1905C16.9899 10.216 17.0769 10.2656 17.146 10.3341C17.2152 10.4027 17.2639 10.4878 17.2872 10.5806C17.3105 10.6734 17.3076 10.7704 17.2786 10.8617C17.2496 10.953 17.1958 11.0352 17.1226 11.0998C16.9834 11.2207 16.8322 11.3282 16.6712 11.4207C16.1757 11.7235 15.7446 12.1137 15.4006 12.5707C15.1751 12.8664 15.0198 13.2059 14.9457 13.5653C14.8715 13.9248 14.8803 14.2955 14.9715 14.6513C15.0979 15.1365 15.3783 15.5721 15.774 15.8976C17 16.9673 18.5938 15.935 18.3152 14.4748C17.9084 14.5711 17.5517 14.6727 17.1895 14.7583Z" fill="#3A3B7B"/>
<path d="M24.6794 17.775C22.8683 18.8448 20.8063 17.775 20.3549 15.5286C20.0261 13.924 20.6503 11.6775 22.8349 10.8218C23.2996 10.6436 23.8038 10.581 24.3005 10.6399C24.8973 10.7447 25.4447 11.0267 25.8656 11.4461C26.2865 11.8654 26.5598 12.401 26.6467 12.9773C27.0145 14.8867 26.1785 16.9246 24.6794 17.775ZM25.3092 14.1754C25.3086 13.731 25.1449 13.3011 24.8467 12.9612C24.6872 12.751 24.4568 12.6004 24.1946 12.535C23.9324 12.4697 23.6547 12.4936 23.4088 12.6029C22.428 13.0094 21.737 14.4856 21.9878 15.5714C22.0069 15.7418 22.0646 15.9061 22.1568 16.0529C22.249 16.1997 22.3735 16.3253 22.5216 16.4211C22.6697 16.5169 22.8378 16.5804 23.0141 16.6074C23.1905 16.6343 23.3709 16.6239 23.5426 16.577C24.061 16.4031 24.5099 16.0783 24.8266 15.6477C25.1433 15.2171 25.3121 14.7024 25.3092 14.1754Z" fill="#3A3B7B"/>
<path d="M28.4783 18.2243C28.451 18.4201 28.3438 18.5974 28.1802 18.7173C28.0166 18.8371 27.8101 18.8897 27.6062 18.8635C27.4022 18.8372 27.2175 18.7343 27.0926 18.5773C26.9677 18.4204 26.9129 18.2222 26.9402 18.0264C26.9676 17.8306 27.0748 17.6533 27.2384 17.5335C27.4019 17.4136 27.6084 17.361 27.8124 17.3872C28.0163 17.4135 28.2011 17.5164 28.326 17.6734C28.4509 17.8304 28.5057 18.0286 28.4783 18.2243ZM27.9935 11.0089C28.0995 10.8535 28.255 10.7352 28.4368 10.6716C28.6185 10.608 28.8169 10.6025 29.0022 10.6559C29.1906 10.7011 29.357 10.8071 29.4737 10.9561C29.5904 11.1051 29.6501 11.288 29.6431 11.4742C29.6185 11.773 29.5719 12.0697 29.5038 12.3621C29.3198 13.3516 29.1415 14.3411 28.9465 15.32C28.8573 15.7104 28.7403 16.0848 28.6121 16.4806C28.5675 16.6043 28.493 16.7162 28.3948 16.8069C28.3337 16.8752 28.2557 16.9275 28.1679 16.9591C28.0801 16.9908 27.9855 17.0006 27.8927 16.9878C27.7999 16.975 27.712 16.94 27.6371 16.8859C27.5621 16.8319 27.5027 16.7605 27.4641 16.6785C27.3978 16.5314 27.3618 16.3734 27.3582 16.2132C27.3582 15.55 27.3582 14.8814 27.4028 14.2128C27.4785 13.2586 27.6275 12.3111 27.8486 11.378C27.8746 11.253 27.9237 11.1334 27.9935 11.025V11.0089Z" fill="#3A3B7B"/>
<path fill-rule="evenodd" clip-rule="evenodd" d="M2.99446 22.5224C2.92866 22.6634 2.91062 22.8205 2.94277 22.9718C2.96417 23.1712 3.01115 23.3673 3.08266 23.5557C3.17193 23.7864 3.27183 24.0145 3.39501 24.2956C3.42333 24.3603 3.45294 24.4278 3.48391 24.4989C3.65002 24.8797 3.85845 25.3665 4.13646 26.071C4.21515 26.2711 4.28502 26.4728 4.35539 26.676C4.38381 26.7581 4.41234 26.8404 4.44154 26.9229C4.54621 27.2164 4.72631 27.48 4.96504 27.6889C5.06641 27.8037 5.20087 27.8874 5.35164 27.9293C5.50536 27.9719 5.66884 27.9692 5.82092 27.9215C5.973 27.8737 6.10657 27.7832 6.20429 27.6616C6.3001 27.5423 6.35707 27.3986 6.36815 27.2485C6.43031 26.9561 6.40909 26.6529 6.30665 26.371C6.14405 25.9029 5.95884 25.4341 5.74525 24.9756L5.74427 24.9736C5.39291 24.2563 5.03575 23.5439 4.6617 22.8312L4.6589 22.8262C4.54939 22.6406 4.40709 22.4746 4.23837 22.3358C4.12884 22.2118 3.97775 22.1283 3.81091 22.0994C3.6405 22.07 3.46476 22.0997 3.31504 22.1831C3.17341 22.2608 3.06114 22.3795 2.99446 22.5224Z" fill="#3A3B7B"/>
<path fill-rule="evenodd" clip-rule="evenodd" d="M8.36098 20.7561C7.81006 20.6191 7.23469 20.5992 6.67498 20.6976C6.24146 20.7386 5.81508 20.8345 5.51901 21.0247C5.36842 21.1214 5.24668 21.2457 5.17896 21.4036C5.11086 21.5623 5.10217 21.7439 5.15797 21.9462C5.25986 22.3168 5.39217 22.6772 5.52401 23.0363L5.54537 23.0945L5.54588 23.0958C5.94286 24.1392 6.34362 25.1791 6.74803 26.2155C6.79518 26.3788 6.86188 26.5363 6.94675 26.6849L6.94834 26.6877C7.06046 26.8723 7.20427 27.0374 7.37368 27.1761C7.45842 27.2523 7.5632 27.3051 7.67681 27.3287C7.79155 27.3524 7.91087 27.3455 8.02177 27.3087C8.13272 27.2718 8.23096 27.2064 8.30584 27.1196C8.37949 27.0343 8.42772 26.9314 8.44544 26.822C8.51853 26.5246 8.49512 26.2128 8.37828 25.9286C8.34182 25.8329 8.31322 25.7352 8.28308 25.6323C8.27303 25.5979 8.26284 25.563 8.25209 25.5275C9.17779 25.1802 10.1628 24.7132 10.5091 23.6268C10.6447 23.2514 10.6561 22.8449 10.5415 22.463C10.4268 22.0807 10.1915 21.7419 9.86794 21.4931C9.42764 21.1449 8.91331 20.8933 8.36098 20.7561ZM6.83388 22.0886C6.85211 22.0835 6.87048 22.0788 6.88889 22.0745C7.49155 21.9835 8.10814 22.1047 8.62514 22.4156C8.85297 22.5677 8.94631 22.7366 8.96234 22.8992C8.97888 23.0666 8.91546 23.248 8.78806 23.4224C8.54732 23.7518 8.108 24.0155 7.71117 24.0646C7.42187 23.4251 7.12809 22.7598 6.83388 22.0886Z" fill="#3A3B7B"/>
<path d="M12.0339 19.5856C12.69 19.2948 13.5027 19.2445 14.1386 19.449C14.2988 19.4938 14.4377 19.5906 14.5317 19.723C14.6251 19.8545 14.6682 20.013 14.6538 20.1715C14.6529 20.2743 14.6266 20.3755 14.5771 20.4668C14.5267 20.5598 14.4537 20.6397 14.3644 20.6999C14.275 20.76 14.1719 20.7987 14.0637 20.8125C13.9554 20.8264 13.8454 20.815 13.7427 20.7793L13.7349 20.7766L13.7275 20.7729C13.675 20.7465 13.6192 20.7267 13.5615 20.7137L13.5578 20.713C13.1105 20.5989 12.6885 20.7879 12.5344 21.0201C12.4609 21.1308 12.4517 21.2425 12.513 21.3442C12.5785 21.453 12.7394 21.5752 13.0648 21.6623C13.1543 21.6859 13.246 21.7086 13.3391 21.7318C13.5964 21.7957 13.8638 21.8621 14.1224 21.9542L14.1234 21.9546C15.3164 22.3902 15.7606 23.2925 15.6085 24.1411C15.4581 24.9804 14.7278 25.7441 13.6297 25.9243C13.2301 26.0093 12.8142 25.9927 12.4233 25.8763C12.0314 25.7594 11.6781 25.5462 11.3985 25.2577L11.3913 25.2502C11.303 25.1415 11.2437 25.0139 11.2173 24.8784C11.1931 24.7561 11.2059 24.6298 11.254 24.5142C11.3019 24.3993 11.3828 24.2999 11.4873 24.2275C11.5976 24.1454 11.7307 24.0961 11.8699 24.0858C12.0086 24.0756 12.1475 24.1045 12.2693 24.169C12.391 24.2255 12.5042 24.2974 12.6058 24.383L12.6077 24.3846C12.7875 24.5424 13.005 24.5835 13.2135 24.5454C13.4251 24.5068 13.624 24.3866 13.752 24.2272C13.8791 24.0688 13.9301 23.8806 13.8696 23.6979C13.8086 23.5139 13.6254 23.3077 13.2227 23.1354C13.1175 23.0925 13.0084 23.0579 12.8948 23.0242C12.8642 23.0151 12.8331 23.0061 12.8016 22.9969C12.7177 22.9725 12.6313 22.9473 12.5466 22.9195C12.4883 22.9004 12.4304 22.8824 12.3731 22.8644C12.2165 22.8155 12.0638 22.7678 11.9169 22.7038C11.5971 22.5992 11.3208 22.3986 11.1291 22.1314C10.9367 21.8632 10.8398 21.5425 10.853 21.2171C10.854 20.4243 11.3743 19.878 12.0339 19.5856Z" fill="#3A3B7B"/>
<path d="M20.3518 19.5012C20.2246 19.4415 20.0839 19.4132 19.9425 19.4188C19.801 19.4244 19.6633 19.4636 19.5416 19.5331C19.4207 19.6021 19.3195 19.6988 19.2469 19.8144C19.1804 19.9118 19.1344 20.0207 19.1115 20.1351C19.0885 20.2494 19.0891 20.3668 19.113 20.4808C19.1367 20.6274 19.163 20.7699 19.1889 20.9104C19.2319 21.1429 19.2737 21.3703 19.3013 21.602L19.3023 21.6079C19.365 21.9714 19.3979 22.339 19.4008 22.7074L19.4011 22.7126C19.4226 23.1105 19.2813 23.5006 19.0077 23.8001L19.0034 23.8055C18.9143 23.915 18.7953 23.9986 18.6595 24.0469C18.5238 24.0952 18.3768 24.1063 18.2348 24.0789C18.0929 24.0516 17.9617 23.9869 17.8559 23.8921C17.7501 23.7973 17.6738 23.6757 17.6357 23.5417C17.5543 23.2592 17.5073 22.9687 17.4953 22.6759L17.6342 20.5535C17.6363 20.5257 17.6386 20.4973 17.641 20.4686C17.6463 20.4041 17.6517 20.3385 17.6539 20.2772C17.6572 20.1871 17.6544 20.0945 17.6325 20.0067C17.6102 19.9171 17.5676 19.8318 17.4921 19.7592C17.4173 19.6873 17.3163 19.6343 17.1893 19.5982C16.9596 19.5343 16.7654 19.5364 16.6035 19.6023C16.4416 19.6682 16.3306 19.7906 16.2521 19.932C16.1742 20.0722 16.1241 20.2382 16.0863 20.4044C16.0582 20.5278 16.0356 20.6573 16.0142 20.7806C16.0067 20.8231 15.9995 20.8648 15.9922 20.9053L15.992 20.9065C15.8772 21.5825 15.843 22.2689 15.8901 22.9524C15.8989 23.3218 15.9792 23.6864 16.1268 24.0276C16.2935 24.4678 16.5952 24.8492 16.9923 25.1215C17.3903 25.3943 17.8652 25.5447 18.3541 25.5526C18.8431 25.5606 19.323 25.4257 19.7304 25.166C20.1371 24.9067 20.4523 24.535 20.6343 24.1001C20.8888 23.5461 21.0084 22.9437 20.9837 22.3386C20.9687 21.8969 20.9437 21.4518 20.9188 21.009C20.9065 20.7917 20.8943 20.575 20.8834 20.3595C20.8779 20.1435 20.8037 19.9343 20.6707 19.7599C20.5884 19.6496 20.4788 19.5607 20.3518 19.5012Z" fill="#3A3B7B"/>
<path d="M24.8545 22.8291C24.8416 22.8449 24.828 22.8612 24.8138 22.8781C24.7103 22.3052 24.6144 21.7324 24.5183 21.1588C24.4839 20.953 24.4493 20.7463 24.4144 20.5403L24.4105 20.5173L24.3978 20.4974C24.3738 20.46 24.3714 20.4234 24.3714 20.3452V20.3362L24.37 20.3272C24.344 20.1658 24.2679 20.0155 24.1517 19.8962C24.0358 19.7771 23.8852 19.6942 23.7197 19.6583C23.5544 19.6191 23.3806 19.6278 23.2204 19.6831C23.0605 19.7383 22.9212 19.8375 22.8198 19.9682C22.7355 20.0686 22.6664 20.1799 22.6146 20.2988C22.497 20.5549 22.3785 20.8118 22.2596 21.0693L22.2575 21.0737C21.9607 21.7166 21.6619 22.3638 21.3717 23.0161L21.3708 23.0182C21.1927 23.4411 21.0457 23.8868 20.8992 24.3311C20.8699 24.4197 20.8407 24.5084 20.8112 24.5968C20.7583 24.737 20.7351 24.8859 20.7431 25.0348C20.7335 25.1681 20.7667 25.301 20.8384 25.4157C20.9115 25.5326 21.021 25.6247 21.1514 25.6788C21.2897 25.737 21.4442 25.7494 21.5906 25.7139C21.7367 25.6786 21.8665 25.5976 21.9594 25.4839C22.0781 25.3437 22.1803 25.1909 22.2635 25.0289C22.5093 24.5464 22.7442 24.058 22.978 23.5717C23.0685 23.3836 23.1564 23.2151 23.2565 23.0316C23.2633 23.0543 23.2703 23.0763 23.2776 23.0984C23.3824 23.5414 23.5594 23.9657 23.8019 24.3557C23.8478 24.4383 23.9117 24.5105 23.9893 24.5674C24.0678 24.6249 24.1584 24.6653 24.2548 24.6858C24.3513 24.7063 24.4512 24.7064 24.5476 24.6861C24.644 24.6658 24.7349 24.6254 24.8134 24.5681L24.9689 24.4564L26.1758 23.4807L26.1044 23.9173C26.0065 24.5173 25.9092 25.1123 25.806 25.7075C25.7384 25.9713 25.7385 26.2468 25.8062 26.5105C25.8356 26.6589 25.9104 26.7955 26.021 26.903C26.1326 27.0113 26.2756 27.0849 26.4313 27.1143C26.587 27.1436 26.7483 27.1273 26.8943 27.0676C27.0382 27.0087 27.1605 26.9102 27.246 26.7848C27.445 26.5478 27.5689 26.2609 27.6029 25.9583C27.6541 25.5309 27.712 25.0977 27.7699 24.6646C27.8366 24.1654 27.9033 23.6663 27.9596 23.1769L27.9598 23.1754C28.014 22.6396 28.0402 22.1016 28.0384 21.5632C28.0503 21.3931 28.0062 21.2237 27.9121 21.0788C27.8178 20.9335 27.678 20.8205 27.5129 20.7558C27.3411 20.6809 27.1487 20.6608 26.9642 20.6987C26.7808 20.7363 26.6149 20.8291 26.4904 20.9635C26.2678 21.1611 26.0589 21.3725 25.8652 21.5965L25.8639 21.598C25.6524 21.8509 25.4424 22.1088 25.2337 22.365C25.1068 22.5207 24.9803 22.6761 24.8545 22.8291Z" fill="#3A3B7B"/>
</g>
<defs>
<clipPath id="clip0_211_2521">
<rect width="32.7153" height="20.186" fill="white" transform="translate(-0.00732422 7.77344)"/>
</clipPath>
</defs>
</svg>
